
nColumns=19
nRows=48
DataType=double
version=3
OpenSimVersion=4.4-2022-10-11-798caa840
endheader
time	ground_force_calcn_r_vx	ground_force_calcn_r_vy	ground_force_calcn_r_vz	ground_force_calcn_r_px	ground_force_calcn_r_py	ground_force_calcn_r_pz	ground_force_calcn_r_mx	ground_force_calcn_r_my	ground_force_calcn_r_mz	ground_force_calcn_l_vx	ground_force_calcn_l_vy	ground_force_calcn_l_vz	ground_force_calcn_l_px	ground_force_calcn_l_py	ground_force_calcn_l_pz	ground_force_calcn_l_mx	ground_force_calcn_l_my	ground_force_calcn_l_mz
0	-15.0023	146.373	4.96328	0.135819	0	-0.222808	-0.0168569	0.164468	0.00557685	0	0	0	0	0	0	0	0	0
0.01	-22.2833	189.288	5.00701	0.138018	0	-0.222397	-0.0197284	0.167585	0.00443293	0	0	0	0	0	0	0	0	0
0.02	-30.7767	235.534	4.82383	0.140817	0	-0.221854	-0.0229384	0.175547	0.00359528	0	0	0	0	0	0	0	0	0
0.03	-40.2145	283.748	4.33153	0.143837	0	-0.221243	-0.0270441	0.19082	0.00291294	0	0	0	0	0	0	0	0	0
0.04	-50.185	332.6	3.45495	0.147033	0	-0.220567	-0.03264	0.216321	0.00224708	0	0	0	0	0	0	0	0	0
0.05	-60.2493	380.782	2.15074	0.150357	0	-0.219833	-0.0401988	0.25406	0.00143499	0	0	0	0	0	0	0	0	0
0.06	-69.9717	427.082	0.416974	0.153756	0	-0.219052	-0.0502268	0.306567	0.000299311	0	0	0	0	0	0	0	0	0
0.07000000000000001	-78.947	470.438	-1.69779	0.157175	0	-0.21824	-0.0635183	0.3785	-0.00136599	0	0	0	0	0	0	0	0	0
0.08	-86.8069	509.944	-4.09489	0.160565	0	-0.217409	-0.08089789999999999	0.475231	-0.00381615	0	0	0	0	0	0	0	0	0
0.09	-93.2689	544.974	-6.66555	0.163892	0	-0.216567	-0.102428	0.598491	-0.0073201	0	0	0	0	0	0	0	0	0
0.1	-98.1878	575.2910000000001	-9.31744	0.167138	0	-0.215714	-0.127056	0.744431	-0.0120568	0	0	0	0	0	0	0	0	0
0.11	-101.525	600.941	-11.9656	0.170296	0	-0.214849	-0.153001	0.905631	-0.0180325	0	0	0	0	0	0	0	0	0
0.12	-103.3	622.085	-14.5321	0.173359	0	-0.213969	-0.178083	1.07244	-0.0250525	0	0	0	0	0	0	0	0	0
0.13	-103.566	638.883	-16.9579	0.176322	0	-0.213071	-0.199951	1.23346	-0.0327399	0	0	0	0	0	0	0	0	0
0.14	-102.421	651.457	-19.2072	0.179188	0	-0.212148	-0.216489	1.377	-0.0405986	0	0	0	0	0	0	0	0	0
0.15	-100.01	659.9109999999999	-21.2601	0.181968	0	-0.211192	-0.226224	1.49273	-0.0480906	0	0	0	0	0	0	0	0	0
0.16	-96.5196	664.38	-23.1052	0.18468	0	-0.210198	-0.228517	1.57296	-0.0547031	0	0	0	0	0	0	0	0	0
0.17	-92.1627	665.086	-24.7273	0.187354	0	-0.209165	-0.223547	1.61321	-0.0599777	0	0	0	0	0	0	0	0	0
0.18	-87.1665	662.38	-26.0958	0.190016	0	-0.208095	-0.212111	1.61184	-0.06350160000000001	0	0	0	0	0	0	0	0	0
0.19	-81.7555	656.731	-27.1636	0.192696	0	-0.206998	-0.195354	1.56925	-0.06490700000000001	0	0	0	0	0	0	0	0	0
0.2	-76.1347	648.686	-27.8776	0.195421	0	-0.205887	-0.174533	1.48706	-0.0639073	0	0	0	0	0	0	0	0	0
0.21	-70.4803	638.818	-28.1945	0.19821	0	-0.204778	-0.150859	1.36735	-0.0603487	0	0	0	0	0	0	0	0	0
0.22	-64.9332	627.678	-28.0937	0.201079	0	-0.203686	-0.12542	1.21238	-0.0542637	0	0	0	0	0	0	0	0	0
0.23	-59.5974	615.77	-27.5855	0.204033	0	-0.202623	-0.09918680000000001	1.02481	-0.0459101	0	0	0	0	0	0	0	0	0
0.24	-54.5435	603.54	-26.712	0.207076	0	-0.201598	-0.0730302	0.808101	-0.0357657	0	0	0	0	0	0	0	0	0
0.25	-49.8128	591.374	-25.541	0.210201	0	-0.200615	-0.0477173	0.566495	-0.0244665	0	0	0	0	0	0	0	0	0
0.26	-45.4191	579.593	-24.1566	0.2134	0	-0.199672	-0.0238964	0.304942	-0.0127095	0	0	0	0	0	0	0	0	0
0.27	-41.3497	568.465	-22.6486	0.216651	0	-0.19877	-0.00209871	0.0288525	-0.00114953	0	0	0	0	0	0	0	0	0
0.28	-37.5675	558.203	-21.1031	0.219936	0	-0.1979	0.0172478	-0.256279	0.00968871	0	0	0	0	0	0	0	0	0
0.29	-34.0142	548.9829999999999	-19.5957	0.223224	0	-0.19706	0.0337843	-0.545272	0.0194633	0	0	0	0	0	0	0	0	0
0.3	-30.6154	540.962	-18.1906	0.226484	0	-0.196243	0.0471678	-0.833437	0.0280255	0	0	0	0	0	0	0	0	0
0.31	-27.2881	534.29	-16.9406	0.229685	0	-0.195444	0.057023	-1.11649	0.0354002	0	0	0	0	0	0	0	0	0
0.32	-23.9477	529.12	-15.8891	0.232795	0	-0.194657	0.06292499999999999	-1.39031	0.04175	0	0	0	0	0	0	0	0	0
0.33	-20.5141	525.6079999999999	-15.0706	0.235793	0	-0.193878	0.0644295	-1.6508	0.0473328	0	0	0	0	0	0	0	0	0
0.34	-16.9162	523.915	-14.5115	0.238661	0	-0.193101	0.0611417	-1.89364	0.0524503	0	0	0	0	0	0	0	0	0
0.35	-13.0956	524.197	-14.2316	0.241396	0	-0.192325	0.0528199	-2.1143	0.0574019	0	0	0	0	0	0	0	0	0
0.36	-9.008190000000001	526.59	-14.2459	0.244001	0	-0.191548	0.0394854	-2.30819	0.0624436	0	0	0	0	0	0	0	0	0
0.37	-4.6234	531.197	-14.5642	0.246486	0	-0.190772	0.0215052	-2.4708	0.06774380000000001	0	0	0	0	0	0	0	0	0
0.38	0.0782626	538.062	-15.1885	0.24887	0	-0.190003	-0.000377918	-2.59822	0.0733429	0	0	0	0	0	0	0	0	0
0.39	5.10711	547.1609999999999	-16.1092	0.251172	0	-0.18925	-0.0250863	-2.68767	0.07912909999999999	0	0	0	0	0	0	0	0	0
0.4	10.4648	558.385	-17.3021	0.253413	0	-0.188526	-0.0513126	-2.73796	0.0848382	0	0	0	0	0	0	0	0	0
0.41	16.1454	571.5359999999999	-18.7251	0.255618	0	-0.187843	-0.07767979999999999	-2.74981	0.0900917	0	0	0	0	0	0	0	0	0
0.42	22.1378	586.311	-20.3207	0.257808	0	-0.187218	-0.102917	-2.72572	0.0944695	0	0	0	0	0	0	0	0	0
0.43	28.4286	602.292	-22.019	0.260004	0	-0.186662	-0.125995	-2.66935	0.0975878	0	0	0	0	0	0	0	0	0
0.44	35.0031	618.951	-23.7424	0.262226	0	-0.186183	-0.146185	-2.58495	0.09915640000000001	0	0	0	0	0	0	0	0	0
0.45	41.8436	635.678	-25.41	0.264489	0	-0.185789	-0.163046	-2.47695	0.0990113	0	0	0	0	0	0	0	0	0
0.46	48.9245	651.811	-26.942	0.266808	0	-0.185481	-0.176366	-2.34968	0.097122	0	0	0	0	0	0	0	0	0
0.47	56.2058	666.673	-28.2625	0.269189	0	-0.18526	-0.186085	-2.20721	0.093571	0	0	0	0	0	0	0	0	0
